HIERARCHY
ROOT root
{
	OFFSET 0.000000 0.000000 0.000000
	CHANNELS 6 Xposition Yposition Zposition Zrotation Yrotation Xrotation
	JOINT lhip
	{
		OFFSET 0.058581 -0.082280 -0.017664
		CHANNELS 3 Zrotation Yrotation Xrotation
		JOINT lknee
		{
			OFFSET 0.043451 -0.386469 0.008037
			CHANNELS 3 Zrotation Yrotation Xrotation
			JOINT lankle
			{
				OFFSET -0.014790 -0.426874 -0.037428
				CHANNELS 3 Zrotation Yrotation Xrotation
				JOINT ltoe
				{
					OFFSET 0.041054 -0.060286 0.122042
					CHANNELS 3 Zrotation Yrotation Xrotation
					End Site
					{
						OFFSET 0.000000 0.000000 0.000000
					}
				}
			}
		}
	}
	JOINT rhip
	{
		OFFSET -0.060310 -0.090513 -0.013543
		CHANNELS 3 Zrotation Yrotation Xrotation
		JOINT rknee
		{
			OFFSET -0.043257 -0.383688 -0.004843
			CHANNELS 3 Zrotation Yrotation Xrotation
			JOINT rankle
			{
				OFFSET 0.019056 -0.420046 -0.034562
				CHANNELS 3 Zrotation Yrotation Xrotation
				JOINT rtoe
				{
					OFFSET -0.034840 -0.062106 0.130323
					CHANNELS 3 Zrotation Yrotation Xrotation
					End Site
					{
						OFFSET 0.000000 0.000000 0.000000
					}
				}
			}
		}
	}
	JOINT lowerback
	{
		OFFSET 0.004439 0.124404 -0.038385
		CHANNELS 3 Zrotation Yrotation Xrotation
		JOINT upperback
		{
			OFFSET 0.004488 0.137956 0.026820
			CHANNELS 3 Zrotation Yrotation Xrotation
			JOINT chest
			{
				OFFSET -0.002265 0.056032 0.002855
				CHANNELS 3 Zrotation Yrotation Xrotation
				JOINT lowerneck
				{
					OFFSET -0.013390 0.211636 -0.033468
					CHANNELS 3 Zrotation Yrotation Xrotation
					JOINT upperneck
					{
						OFFSET 0.010113 0.088937 0.050410
						CHANNELS 3 Zrotation Yrotation Xrotation
						End Site
						{
							OFFSET 0.000000 0.000000 0.000000
						}
					}
				}
				JOINT lclavicle
				{
					OFFSET 0.071702 0.114000 -0.018898
					CHANNELS 3 Zrotation Yrotation Xrotation
					JOINT lshoulder
					{
						OFFSET 0.122921 0.045205 -0.019046
						CHANNELS 3 Zrotation Yrotation Xrotation
						JOINT lelbow
						{
							OFFSET 0.255332 -0.015649 -0.022946
							CHANNELS 3 Zrotation Yrotation Xrotation
							JOINT lwrist
							{
								OFFSET 0.265709 0.012698 -0.007375
								CHANNELS 3 Zrotation Yrotation Xrotation
								End Site
								{
									OFFSET 0.000000 0.000000 0.000000
								}
							}
						}
					}
				}
				JOINT rclavicle
				{
					OFFSET -0.082954 0.112472 -0.023707
					CHANNELS 3 Zrotation Yrotation Xrotation
					JOINT rshoulder
					{
						OFFSET -0.113228 0.046853 -0.008472
						CHANNELS 3 Zrotation Yrotation Xrotation
						JOINT relbow
						{
							OFFSET -0.260127 -0.014369 -0.031269
							CHANNELS 3 Zrotation Yrotation Xrotation
							JOINT rwrist
							{
								OFFSET -0.269108 0.006794 -0.006027
								CHANNELS 3 Zrotation Yrotation Xrotation
								End Site
								{
									OFFSET 0.000000 0.000000 0.000000
								}
							}
						}
					}
				}
			}
		}
	}
}
MOTION
Frames: 16
Frame Time: 0.033333
-0.535757 0.900338 0.951794 89.990093 0.985978 88.737918 10.673573 4.947975 -14.780397 -8.993865 -5.202497 28.398851 -1.864111 14.088749 -22.830586 0.000000 -0.000000 0.000000 -5.105139 -3.812890 -16.685136 0.732616 0.598977 24.160991 1.247163 -8.946290 -24.297356 0.000000 -0.000000 0.000000 0.607996 2.488397 17.239800 -3.769025 -2.287346 17.197475 2.105596 4.353574 0.955542 -6.412157 8.375370 -2.802088 7.458555 -7.450258 -38.207768 4.261111 -37.843514 -5.534258 -35.968450 -24.448408 -5.259178 21.717960 -40.125387 -14.697421 -2.424707 -24.068939 7.058553 -8.354449 47.111304 -1.006943 35.999061 22.118487 -12.973517 -13.303703 37.872141 -6.585426 -5.049796 16.322597 -7.565979 
-0.534897 0.899035 0.951518 89.936419 0.800542 88.574899 10.568560 4.702611 -14.490336 -8.752135 -4.906565 28.338153 -1.851492 13.958616 -22.810355 0.000000 -0.000000 0.000000 -5.178910 -4.150245 -16.674255 0.721682 0.548582 24.607223 0.489079 -8.648237 -24.641094 0.000000 -0.000000 0.000000 0.863994 2.448118 17.104419 -3.680080 -2.471638 16.720685 2.191750 4.049450 0.399462 -6.398432 8.565504 -2.920153 6.936250 -7.545628 -37.889479 3.708279 -37.453477 -5.486960 -36.843564 -24.722473 -4.970419 21.532788 -40.006680 -14.725014 -2.867937 -23.763462 7.725468 -7.881357 46.979258 -0.501724 36.432926 22.427876 -12.700260 -13.049914 37.677371 -6.363239 -4.781635 16.273462 -7.222503 
-0.533391 0.896780 0.951490 89.583261 0.720634 88.397588 10.746212 4.917982 -14.000391 -8.797818 -4.843412 28.202467 -1.985987 13.924487 -22.909423 0.000000 -0.000000 0.000000 -5.043679 -3.854069 -16.670996 0.673976 0.693922 25.088460 0.475691 -8.743441 -25.071205 0.000000 -0.000000 0.000000 0.803689 2.441182 16.394488 -3.530223 -2.356487 16.636115 2.335732 4.052717 0.434269 -6.536729 8.757058 -3.514828 6.790838 -7.589698 -37.800086 3.774527 -37.715996 -5.617992 -37.403670 -24.676361 -4.764540 21.485845 -39.828752 -14.863031 -2.946076 -23.643146 7.631280 -7.815968 47.003171 -0.537740 36.531272 22.183796 -12.570352 -12.446646 37.742949 -5.702211 -4.809450 16.503566 -7.346466 
-0.531824 0.895164 0.951314 89.292887 0.577019 88.182617 10.743257 5.046726 -13.526592 -8.776592 -4.826657 28.138661 -2.031858 14.044262 -23.124662 0.000000 -0.000000 0.000000 -5.090647 -3.647616 -16.533230 0.605684 0.658937 25.373471 0.630976 -8.464698 -25.089477 0.000000 -0.000000 0.000000 0.905675 2.282828 15.711531 -3.460220 -2.285866 16.325272 2.236558 4.119068 0.445114 -6.584974 8.909184 -4.075758 6.543674 -7.460004 -37.699227 3.730861 -37.577311 -5.829466 -38.153661 -25.049497 -4.388862 21.324387 -39.516724 -14.491853 -3.153300 -23.317074 7.669773 -7.772548 46.782245 -0.781093 37.192904 22.205530 -12.117521 -12.236603 37.583227 -5.151401 -4.581153 16.176107 -7.350716 
-0.531052 0.894467 0.951083 89.405707 0.447967 88.123301 10.663673 4.923994 -13.356661 -8.826517 -4.955560 27.986164 -1.989089 14.101129 -23.096231 0.000000 -0.000000 0.000000 -5.278613 -3.673948 -16.491533 0.743940 0.523355 25.577793 0.772205 -8.377470 -25.230945 0.000000 -0.000000 0.000000 0.893732 2.258015 15.426379 -3.414395 -2.392619 15.992072 2.339797 4.045628 0.295157 -6.828072 9.118343 -4.396664 6.400715 -7.104896 -37.899985 3.416997 -37.697598 -5.639388 -38.352309 -25.120743 -4.248515 21.173303 -39.364751 -14.442953 -3.256568 -23.474956 7.858936 -7.442523 46.716035 -0.358722 37.420685 22.204363 -12.129635 -12.298947 37.671730 -5.180578 -4.536579 16.398392 -6.865349 
-0.530170 0.893324 0.950853 89.386582 0.434613 87.914028 10.780013 5.031946 -12.982432 -8.871431 -4.990517 27.834983 -2.129812 14.010471 -23.089653 0.000000 -0.000000 0.000000 -5.195683 -3.460904 -16.331202 0.665706 0.450898 25.839175 0.822785 -8.471747 -25.615277 0.000000 -0.000000 0.000000 1.060184 2.119718 15.084207 -3.399053 -2.350197 15.800643 2.233325 4.033259 0.333464 -7.009894 9.577372 -5.137037 6.321132 -6.998207 -37.933207 3.782172 -37.643279 -5.899284 -38.837419 -25.270178 -3.855825 21.160501 -39.409945 -14.373110 -3.670633 -23.107288 7.763839 -7.493441 46.522493 -0.568999 37.590738 22.148192 -11.727243 -12.043860 37.773387 -4.862496 -4.235569 16.301823 -6.989877 
-0.529680 0.892753 0.950579 89.422894 0.429605 87.814381 10.841946 5.180443 -12.862174 -8.888142 -5.006761 27.859245 -2.168336 13.905262 -23.164075 0.000000 -0.000000 0.000000 -5.107825 -3.498378 -16.234233 0.547341 0.539463 25.972218 0.663565 -8.439593 -25.625638 0.000000 -0.000000 0.000000 1.160735 2.057557 14.778826 -3.282067 -2.273788 15.197588 2.341878 4.074597 0.535294 -7.140473 9.716197 -5.519745 5.891607 -6.856469 -37.799001 3.490759 -37.597830 -6.092708 -39.255054 -25.440213 -3.280617 20.842921 -39.257813 -13.656388 -3.020191 -23.399484 7.528084 -7.472545 46.280186 -0.726648 37.789310 22.033212 -11.444625 -11.762486 37.588363 -4.641714 -4.390396 16.174934 -7.131441 
-0.529436 0.892455 0.950449 89.465554 0.380053 87.701389 10.859190 5.108371 -12.658432 -9.022268 -5.100610 27.751544 -2.077607 14.124962 -23.209911 0.000000 -0.000000 0.000000 -5.212560 -3.503310 -16.090722 0.702403 0.562468 26.017687 0.664219 -8.538454 -25.718132 0.000000 -0.000000 0.000000 1.277286 2.117013 14.367579 -3.168827 -2.259336 15.201223 2.364365 4.118968 0.424921 -7.329297 9.826173 -5.923922 5.629730 -6.685089 -37.737398 3.670016 -37.709587 -6.223757 -39.324539 -25.588086 -3.107971 20.247265 -39.148031 -12.876888 -3.760419 -23.051687 7.268135 -7.512517 46.219491 -0.939129 37.855956 21.766513 -11.287915 -11.599354 37.492222 -4.470833 -3.917624 16.012854 -6.810720 
-0.528985 0.892268 0.950333 89.611489 0.358552 87.650990 10.848048 5.049449 -12.533056 -9.024926 -5.192502 27.618929 -2.066289 14.180503 -23.241297 0.000000 -0.000000 0.000000 -5.334208 -3.512616 -15.913243 0.845521 0.485745 25.897568 0.623444 -8.608906 -25.799834 0.000000 -0.000000 0.000000 1.428633 2.192208 13.839219 -3.091651 -2.253192 15.319489 2.457551 4.186813 0.254171 -7.540492 10.119492 -6.497506 5.197655 -6.398903 -37.661859 3.233160 -37.892337 -6.257976 -39.342309 -25.513963 -2.822204 19.957315 -39.327706 -12.909675 -4.105091 -22.955610 7.669575 -7.175198 46.348386 -0.851935 37.675470 21.278970 -10.995931 -11.665745 37.437143 -4.617602 -3.889071 16.208079 -7.026248 
-0.528539 0.892336 0.949991 89.942269 0.240329 87.634425 10.651316 4.959211 -12.573026 -9.021871 -5.386917 27.601523 -2.011744 14.153210 -23.303725 0.000000 -0.000000 0.000000 -5.534588 -3.675460 -15.840202 0.867316 0.392988 26.003304 0.505266 -8.690151 -26.016056 0.000000 -0.000000 0.000000 1.632237 2.168505 13.240202 -2.924917 -2.288807 15.266563 2.520784 4.237807 0.058852 -7.931835 10.705011 -6.618648 4.668070 -5.703536 -37.823670 2.951222 -37.817022 -6.080254 -39.777337 -25.502421 -2.676759 19.615469 -39.703674 -12.597245 -4.483737 -22.574105 8.094946 -7.094756 46.145772 -0.746244 37.796586 21.433184 -10.985289 -11.422543 37.089134 -4.817740 -3.736644 15.994581 -6.744498 
-0.528278 0.892439 0.949829 90.062790 0.130078 87.578991 10.481852 4.789056 -12.511473 -8.902076 -5.332389 27.559650 -2.013395 14.113956 -23.288349 0.000000 -0.000000 0.000000 -5.675545 -3.794543 -15.787244 0.784906 0.220009 26.103076 0.531592 -8.495196 -26.004938 0.000000 -0.000000 0.000000 1.802014 2.293517 13.000006 -2.831085 -2.136244 15.003115 2.570735 4.393963 -0.029175 -8.374724 12.069904 -7.375893 4.046594 -4.599795 -37.797815 3.022886 -37.826497 -6.290352 -40.290552 -25.573139 -1.940378 19.234348 -39.747539 -11.913326 -4.296675 -22.816122 7.540659 -6.698834 45.838869 -0.653441 37.854914 21.238729 -10.717748 -11.340390 37.021052 -4.964985 -3.739095 16.160232 -6.501148 
-0.528073 0.892430 0.949581 90.279628 0.072744 87.397821 10.406336 4.782541 -12.345265 -8.927079 -5.494266 27.500407 -2.006883 14.124396 -23.309384 0.000000 -0.000000 0.000000 -5.763637 -3.756310 -15.560845 0.737976 0.065900 26.220751 0.583399 -8.467910 -26.142326 0.000000 -0.000000 0.000000 2.162004 2.297168 12.848845 -2.783336 -1.990172 14.590268 2.604034 4.654172 0.107749 -9.118746 13.869154 -8.104224 3.135156 -3.253463 -37.637812 3.069904 -37.767166 -6.545851 -40.776968 -25.718314 -1.322810 18.644942 -39.806988 -11.035248 -4.253281 -22.844993 7.182024 -6.407238 45.513441 -0.515612 38.011744 21.054038 -10.541009 -11.590448 37.121768 -5.321672 -3.329595 15.981517 -6.299277 
-0.527742 0.892215 0.949621 90.640242 -0.003403 87.396044 10.341219 4.627212 -12.457483 -9.065893 -5.668657 27.683649 -1.896951 14.086287 -23.285174 0.000000 -0.000000 0.000000 -5.783998 -3.717455 -15.529518 0.559624 0.029746 26.453543 0.583655 -8.802010 -26.252341 0.000000 -0.000000 0.000000 2.439069 2.402697 12.423459 -2.565950 -1.845364 14.542443 2.737091 4.770616 -0.010324 -9.515207 15.629037 -9.214435 2.002672 -1.921504 -37.224644 3.367208 -37.596005 -6.884507 -41.799327 -25.910874 -0.726613 18.312053 -39.979219 -10.243649 -3.957312 -22.634660 6.763909 -6.221004 45.164291 -0.355831 38.214785 20.942733 -10.242705 -11.828649 37.033369 -5.424524 -3.628334 15.795059 -6.158882 
-0.527485 0.892072 0.949656 91.193329 -0.259354 87.367157 10.082765 4.210849 -12.554557 -9.165141 -5.661460 27.743028 -1.756440 14.082882 -23.266415 0.000000 -0.000000 0.000000 -6.123111 -3.929057 -15.435198 0.431391 -0.203798 26.621277 0.506169 -8.801504 -26.550398 0.000000 -0.000000 0.000000 2.758991 2.551801 12.249054 -2.462646 -1.785702 13.957093 2.869682 4.752432 0.076506 -10.310545 17.118785 -9.921121 1.297122 -0.686201 -37.148419 3.348377 -37.557777 -6.949696 -42.583965 -26.041497 -0.050742 18.030262 -39.862146 -9.624468 -4.152283 -22.775301 6.317600 -6.025622 44.740117 -0.201695 38.522741 20.802071 -9.828792 -11.878111 37.109743 -5.414499 -2.938357 15.763383 -6.290876 
-0.526557 0.891948 0.949495 91.826142 -0.437781 87.047641 9.852489 3.914831 -12.233756 -9.156570 -5.872871 27.630479 -1.632944 14.032816 -23.325693 0.000000 -0.000000 0.000000 -6.443709 -4.111636 -14.844870 0.355580 -0.581886 26.544099 0.671521 -8.634126 -26.575067 0.000000 -0.000000 0.000000 3.093232 2.681008 11.941062 -2.271485 -1.783149 14.315070 2.972504 4.962645 -0.414765 -10.851968 18.637278 -10.054270 0.414797 0.425252 -37.166224 3.304043 -37.833248 -7.116159 -43.294633 -26.108462 0.586560 17.981216 -39.658103 -9.618182 -4.744635 -22.587670 6.185883 -5.680074 44.584316 -0.019421 38.610088 20.273625 -9.564641 -12.091881 36.999837 -5.694066 -2.402681 15.705844 -5.660232 
-0.526284 0.891043 0.949364 92.465953 -0.702416 86.973011 9.556671 3.828897 -12.159801 -9.216336 -6.277454 27.386435 -1.634153 13.844892 -23.197786 0.000000 -0.000000 0.000000 -6.643709 -4.151336 -14.710147 0.221705 -0.734424 26.815499 0.809161 -8.738085 -26.943682 0.000000 -0.000000 0.000000 3.372379 2.800858 11.720304 -2.117385 -1.626773 13.925964 3.022359 5.030838 -0.376556 -11.540873 20.078908 -10.742626 -0.473766 1.780781 -37.085599 3.399025 -37.482506 -7.337830 -44.163781 -26.638389 1.295656 17.608620 -39.548052 -8.830340 -5.110072 -22.163716 5.905529 -5.451633 43.937796 0.054537 38.992095 20.411746 -9.124514 -12.280121 36.758961 -6.020462 -2.315018 15.263309 -5.702718 
